{
  "accessors": [
    {
      "bufferView": 2,
      "componentType": 5126,
      "count": 519,
      "max": [
        0.25,
        0.24620194733142853,
        0.4000000059604645
      ],
      "min": [
        -0.25,
        -0.2545775771141052,
        -1.3894753456115723
      ],
      "type": "VEC3"
    },
    {
      "bufferView": 2,
      "byteOffset": 6228,
      "componentType": 5126,
      "count": 519,
      "max": [
        1.0,
        0.9882627129554749,
        1.0
      ],
      "min": [
        -1.0,
        -0.9912089109420776,
        -1.0
      ],
      "type": "VEC3"
    },
    {
      "bufferView": 1,
      "componentType": 5126,
      "count": 519,
      "max": [
        0.9880144596099854,
        0.9906586408615112
      ],
      "min": [
        0.007230700459331274,
        0.01351967453956604
      ],
      "type": "VEC2"
    },
    {
      "bufferView": 1,
      "byteOffset": 4152,
      "componentType": 5126,
      "count": 519,
      "max": [
        0.9880144596099854,
        0.9906586408615112
      ],
      "min": [
        0.007230700459331274,
        0.01351967453956604
      ],
      "type": "VEC2"
    },
    {
      "bufferView": 0,
      "componentType": 5125,
      "count": 1074,
      "type": "SCALAR"
    },
    {
      "bufferView": 2,
      "byteOffset": 12456,
      "componentType": 5126,
      "count": 519,
      "max": [
        0.25,
        0.24620194733142853,
        0.4000000059604645
      ],
      "min": [
        -0.25,
        -0.2545775771141052,
        -1.3894753456115723
      ],
      "type": "VEC3"
    },
    {
      "bufferView": 2,
      "byteOffset": 18684,
      "componentType": 5126,
      "count": 519,
      "max": [
        1.0,
        0.9882627129554749,
        1.0
      ],
      "min": [
        -1.0,
        -0.9912089109420776,
        -1.0
      ],
      "type": "VEC3"
    },
    {
      "bufferView": 1,
      "byteOffset": 8304,
      "componentType": 5126,
      "count": 519,
      "max": [
        0.9880144596099854,
        0.9906586408615112
      ],
      "min": [
        0.007230700459331274,
        0.01351967453956604
      ],
      "type": "VEC2"
    },
    {
      "bufferView": 1,
      "byteOffset": 12456,
      "componentType": 5126,
      "count": 519,
      "max": [
        0.9880144596099854,
        0.9906586408615112
      ],
      "min": [
        0.007230700459331274,
        0.01351967453956604
      ],
      "type": "VEC2"
    },
    {
      "bufferView": 0,
      "byteOffset": 4296,
      "componentType": 5125,
      "count": 1074,
      "type": "SCALAR"
    }
  ],
  "asset": {
    "extras": {
      "author": "khanhnguyen1189 (https://sketchfab.com/khanhnguyen1189)",
      "license": "CC-BY-4.0 (http://creativecommons.org/licenses/by/4.0/)",
      "source": "https://sketchfab.com/3d-models/stand-light-3-c33f7cfeda3e45689c9ff8561f91303f",
      "title": "Stand Light 3"
    },
    "generator": "Sketchfab-12.67.0",
    "version": "2.0"
  },
  "bufferViews": [
    {
      "buffer": 0,
      "byteLength": 8592,
      "name": "floatBufferViews",
      "target": 34963
    },
    {
      "buffer": 0,
      "byteLength": 16608,
      "byteOffset": 8592,
      "byteStride": 8,
      "name": "floatBufferViews",
      "target": 34962
    },
    {
      "buffer": 0,
      "byteLength": 24912,
      "byteOffset": 25200,
      "byteStride": 12,
      "name": "floatBufferViews",
      "target": 34962
    }
  ],
  "buffers": [
    {
      "byteLength": 50112,
      "uri": "scene.bin"
    }
  ],
  "images": [
    {
      "uri": "textures/STL3_baseColor.png"
    },
    {
      "uri": "textures/STL3_metallicRoughness.png"
    },
    {
      "uri": "textures/STL3_emissive.png"
    }
  ],
  "materials": [
    {
      "doubleSided": true,
      "emissiveFactor": [
        1.0,
        1.0,
        1.0
      ],
      "emissiveTexture": {
        "index": 2
      },
      "name": "STL3",
      "pbrMetallicRoughness": {
        "baseColorTexture": {
          "index": 0
        },
        "metallicRoughnessTexture": {
          "index": 1
        }
      }
    }
  ],
  "meshes": [
    {
      "name": "Stand Light 3_STL3_0",
      "primitives": [
        {
          "attributes": {
            "NORMAL": 1,
            "POSITION": 0,
            "TEXCOORD_0": 2,
            "TEXCOORD_1": 3
          },
          "indices": 4,
          "material": 0,
          "mode": 4
        }
      ]
    },
    {
      "name": "Stand Light 004_STL3_0",
      "primitives": [
        {
          "attributes": {
            "NORMAL": 6,
            "POSITION": 5,
            "TEXCOORD_0": 7,
            "TEXCOORD_1": 8
          },
          "indices": 9,
          "material": 0,
          "mode": 4
        }
      ]
    }
  ],
  "nodes": [
    {
      "children": [
        1
      ],
      "matrix": [
        1.5023603439331055,
        0.0,
        0.0,
        0.0,
        0.0,
        3.3359100902366056e-16,
        -1.5023603439331055,
        0.0,
        0.0,
        1.5023603439331055,
        3.3359100902366056e-16,
        0.0,
        0.0,
        0.0,
        0.0,
        1.0
      ],
      "name": "Sketchfab_model"
    },
    {
      "children": [
        2
      ],
      "matrix": [
        1.0,
        0.0,
        0.0,
        0.0,
        0.0,
        0.0,
        1.0,
        0.0,
        0.0,
        -1.0,
        0.0,
        0.0,
        0.0,
        0.0,
        0.0,
        1.0
      ],
      "name": "STL3.FBX"
    },
    {
      "children": [
        3,
        6
      ],
      "name": "RootNode"
    },
    {
      "children": [
        4
      ],
      "matrix": [
        1.0,
        0.0,
        0.0,
        0.0,
        0.0,
        2.220446049250313e-16,
        -1.0,
        0.0,
        0.0,
        1.0,
        2.220446049250313e-16,
        0.0,
        0.0,
        0.0,
        6.120343698512443e-08,
        1.0
      ],
      "name": "Stand Light 3"
    },
    {
      "children": [
        5
      ],
      "matrix": [
        1.0,
        0.0,
        -0.0,
        0.0,
        0.0,
        1.0,
        0.0,
        0.0,
        0.0,
        0.0,
        1.0,
        0.0,
        0.0,
        0.0,
        1.38827383518219,
        1.0
      ],
      "name": "Object_4"
    },
    {
      "mesh": 0,
      "name": "Stand Light 3_STL3_0"
    },
    {
      "children": [
        7
      ],
      "matrix": [
        1.0,
        0.0,
        0.0,
        0.0,
        0.0,
        2.220446049250313e-16,
        -1.0,
        0.0,
        0.0,
        1.0,
        2.220446049250313e-16,
        0.0,
        0.0,
        0.0,
        -0.7381591200828552,
        1.0
      ],
      "name": "Stand Light 004"
    },
    {
      "children": [
        8
      ],
      "matrix": [
        1.0,
        0.0,
        -0.0,
        0.0,
        0.0,
        1.0,
        0.0,
        0.0,
        0.0,
        0.0,
        1.0,
        0.0,
        0.0,
        0.0,
        1.38827383518219,
        1.0
      ],
      "name": "Object_7"
    },
    {
      "mesh": 1,
      "name": "Stand Light 004_STL3_0"
    }
  ],
  "samplers": [
    {
      "magFilter": 9729,
      "minFilter": 9987,
      "wrapS": 10497,
      "wrapT": 10497
    }
  ],
  "scene": 0,
  "scenes": [
    {
      "name": "Sketchfab_Scene",
      "nodes": [
        0
      ]
    }
  ],
  "textures": [
    {
      "sampler": 0,
      "source": 0
    },
    {
      "sampler": 0,
      "source": 1
    },
    {
      "sampler": 0,
      "source": 2
    }
  ]
}
